/* XPM */
static char *run16[] = {
/* columns rows colors chars-per-pixel */
"16 16 90 1 ",
"  c None",
". c #019201",
"X c #029202",
"o c #019501",
"O c #029501",
"+ c #019601",
"@ c #029502",
"# c #039403",
"$ c #029702",
"% c #039603",
"& c #039803",
"* c #039903",
"= c #039A03",
"- c #039B03",
"; c #059B05",
": c #039C04",
"> c #049C04",
", c #049D04",
"< c #049E04",
"1 c #059F05",
"2 c #089F08",
"3 c #05A005",
"4 c #05A105",
"5 c #06A206",
"6 c #06A306",
"7 c #07A507",
"8 c #08A208",
"9 c #08A508",
"0 c #08A608",
"q c #08A708",
"w c #08A808",
"e c #09A909",
"r c #09AA09",
"t c #09AB09",
"y c #0BA80B",
"u c #0AAD0A",
"i c #0BAF0B",
"p c #0EAD0E",
"a c #0EAF0F",
"s c #0BB00B",
"d c #0BB00C",
"f c #0CB30C",
"g c #0DB20D",
"h c #0CB30D",
"j c #0DB50D",
"k c #0DB60E",
"l c #0EB60E",
"z c #0EB70E",
"x c #0EB90F",
"c c #0FBB10",
"v c #12B512",
"b c #13BA13",
"n c #10BC10",
"m c #10BD11",
"M c #11BE11",
"N c #12BF12",
"B c #15BB15",
"V c #11C012",
"C c #12C112",
"Z c #12C213",
"A c #13C313",
"S c #13C413",
"D c #14C714",
"F c #15C815",
"G c #15C915",
"H c #15C916",
"J c #16CC17",
"K c #17CF17",
"L c #18C119",
"P c #18C718",
"I c #1CC11C",
"U c #1BC71C",
"Y c #17CF18",
"T c #1FCC1F",
"R c #17D018",
"E c #18D118",
"W c #19D41A",
"Q c #1AD61B",
"! c #1CD41D",
"~ c #1BD91B",
"^ c #1BD91C",
"/ c #1CDC1D",
"( c #1EDC1F",
") c #21CE22",
"_ c #21D121",
"` c #22D422",
"' c #22D522",
"] c #22D423",
"[ c #23D824",
"{ c #29D229",
/* pixels */
" {'             ",
" ]~([           ",
" `^/^!)         ",
" _WQWEJPI       ",
" TKRYJFSNb      ",
" UGHGDAVnzgp    ",
" LZAZCMczhir92  ",
" Bnmncxkfit05,& ",
" vklkjhdur05<=+ ",
" asssiutw75<*@  ",
" yerewq763>&    ",
" 8666541,*      ",
" ;,,,:-&#       ",
" %$$$OX         ",
" @+o.           ",
" X.             "
};
